<?xml version="1.0" standalone="no"?>
<!DOCTYPE svg PUBLIC "-//W3C//DTD SVG 20010904//EN"
 "http://www.w3.org/TR/2001/REC-SVG-20010904/DTD/svg10.dtd">
<svg version="1.0" xmlns="http://www.w3.org/2000/svg"
 width="512.000000pt" height="512.000000pt" viewBox="0 0 512.000000 512.000000"
 preserveAspectRatio="xMidYMid meet">
<g transform="translate(0.000000,512.000000) scale(0.050000,-0.050000)"
fill="#000000" stroke="none">
<path d="M722 10218 c-342 -67 -635 -367 -702 -716 -28 -149 -28 -8615 0
-8764 68 -358 360 -650 718 -718 148 -28 6176 -28 6324 0 359 69 649 359 718
718 11 59 20 279 20 488 l0 381 -70 -82 c-176 -206 -330 -292 -1141 -642 -846
-365 -1082 -369 -1450 -29 -358 331 -350 711 43 2116 80 286 72 276 1456 1910
l1160 1370 1 795 1 795 -1082 0 c-1483 0 -1318 -165 -1318 1318 l0 1082 -2295
-2 c-1262 -1 -2335 -10 -2383 -20z m3926 -1823 c200 -115 200 -395 0 -510
l-78 -44 -1567 -1 c-1560 0 -1568 0 -1643 42 -204 115 -206 397 -3 515 73 42
82 42 1643 42 l1570 0 78 -44z m1800 -1820 c200 -115 200 -395 0 -510 l-78
-44 -2467 -1 -2468 0 -75 42 c-204 115 -206 397 -3 515 l73 42 2470 0 2470 0
78 -44z m-1200 -1800 c201 -116 197 -410 -7 -515 -128 -65 -3765 -63 -3881 2
-202 114 -205 398 -5 514 l75 43 1870 0 1870 0 78 -44z m-1216 -1787 c216
-103 216 -433 0 -536 -121 -57 -2568 -48 -2672 10 -204 115 -206 397 -3 515
101 58 2554 68 2675 11z"/>
<path d="M6000 9320 l0 -880 891 0 892 0 -13 45 c-87 311 -1301 1530 -1668
1674 l-102 40 0 -879z"/>
<path d="M9165 6639 c-218 -43 -443 -202 -639 -451 l-65 -82 678 -568 c373
-312 687 -568 698 -568 24 0 211 232 278 348 384 654 -201 1469 -950 1321z"/>
<path d="M7268 4696 c-439 -520 -810 -961 -824 -979 -23 -30 1299 -1181 1352
-1176 20 2 1633 1919 1638 1947 3 18 -1307 1131 -1353 1148 -8 3 -374 -420
-813 -940z"/>
<path d="M5943 3126 c-134 -157 -175 -272 -333 -929 -190 -790 -189 -854 10
-960 114 -61 164 -47 729 196 754 324 938 432 1033 611 15 29 -1303 1176
-1351 1176 -4 0 -44 -42 -88 -94z"/>
</g>
</svg>
